<svg xmlns="http://www.w3.org/2000/svg" version="1.1" xmlns:xlink="http://www.w3.org/1999/xlink" width="512" height="512"><svg width="512" height="512" viewBox="0 0 512 512" fill="none" xmlns="http://www.w3.org/2000/svg">
<path d="M98.0301 4.27505C99.6058 4.27017 99.6058 4.27017 101.213 4.2652C104.736 4.25571 108.259 4.25405 111.782 4.25242C114.306 4.24735 116.831 4.24186 119.356 4.23596C126.218 4.22161 133.08 4.21456 139.942 4.2097C144.229 4.20649 148.517 4.202 152.805 4.19712C164.686 4.18387 176.566 4.17252 188.447 4.16881C189.207 4.16857 189.967 4.16833 190.75 4.16809C191.512 4.16785 192.273 4.16761 193.058 4.16736C194.602 4.16688 196.145 4.16639 197.688 4.1659C198.454 4.16565 199.22 4.16541 200.008 4.16516C212.407 4.16085 224.805 4.14176 237.204 4.11628C249.945 4.09031 262.686 4.07699 275.427 4.07544C282.576 4.07429 289.724 4.06784 296.873 4.04829C303.6 4.03025 310.327 4.02791 317.054 4.03751C319.519 4.03835 321.984 4.03361 324.449 4.02279C327.822 4.00885 331.195 4.01531 334.568 4.0267C335.537 4.01789 336.505 4.00908 337.502 4C353.499 4.12573 365.412 11.474 376.385 22.6102C377.606 23.8228 377.606 23.8228 378.851 25.0598C381.509 27.7057 384.151 30.367 386.792 33.0295C388.65 34.8882 390.508 36.7461 392.368 38.6033C396.249 42.4855 400.123 46.3752 403.991 50.2706C408.938 55.2511 413.901 60.2144 418.871 65.1724C422.706 69.0022 426.533 72.8402 430.358 76.6806C432.185 78.5135 434.014 80.3441 435.845 82.1724C438.406 84.7316 440.956 87.3012 443.504 89.8739C444.254 90.6197 445.004 91.3655 445.777 92.1338C457.49 104.035 460.928 115.166 460.847 131.729C460.852 133.199 460.858 134.67 460.865 136.141C460.881 140.161 460.876 144.181 460.868 148.201C460.863 152.545 460.876 156.889 460.888 161.233C460.906 169.735 460.907 178.237 460.902 186.739C460.897 193.651 460.899 200.564 460.905 207.476C460.905 208.461 460.906 209.446 460.907 210.46C460.909 212.461 460.91 214.462 460.912 216.463C460.927 235.216 460.921 253.968 460.909 272.721C460.898 289.864 460.912 307.007 460.938 324.151C460.965 341.768 460.975 359.385 460.968 377.002C460.964 386.887 460.967 396.772 460.986 406.656C461.002 415.071 461.003 423.486 460.984 431.901C460.974 436.192 460.972 440.482 460.989 444.772C461.004 448.706 460.998 452.639 460.977 456.572C460.971 458.656 460.987 460.74 461.003 462.824C460.896 475.394 457.678 485.793 449.013 495.129C448.089 495.987 447.164 496.844 446.212 497.727C445.423 498.472 444.634 499.216 443.821 499.983C436.236 505.211 427.612 507.703 418.451 507.715C417.275 507.719 416.099 507.723 414.887 507.728C413.601 507.727 412.315 507.726 410.99 507.725C409.619 507.728 408.248 507.731 406.835 507.735C403.032 507.744 399.228 507.746 395.425 507.746C391.322 507.748 387.219 507.757 383.116 507.764C374.144 507.779 365.173 507.785 356.202 507.79C350.598 507.793 344.993 507.798 339.389 507.803C323.867 507.816 308.345 507.827 292.823 507.831C291.83 507.831 290.837 507.832 289.814 507.832C288.32 507.832 288.32 507.832 286.797 507.833C284.779 507.833 282.762 507.834 280.745 507.834C279.244 507.834 279.244 507.834 277.712 507.835C261.504 507.839 245.296 507.858 229.089 507.884C212.44 507.91 195.792 507.923 179.144 507.925C169.8 507.926 160.455 507.932 151.111 507.952C143.153 507.969 135.195 507.974 127.237 507.965C123.179 507.961 119.122 507.962 115.064 507.977C110.657 507.994 106.251 507.985 101.844 507.973C100.572 507.982 99.3011 507.991 97.9913 508C83.7914 507.914 73.5233 504.411 62.7825 495.129C52.5324 483.164 51.0905 471.309 51.1537 456.034C51.1492 454.239 51.1432 452.443 51.1359 450.648C51.1201 445.73 51.1247 440.812 51.1328 435.894C51.138 430.584 51.1243 425.273 51.1131 419.963C51.0943 409.566 51.0934 399.169 51.0991 388.772C51.1036 380.32 51.102 371.868 51.0961 363.417C51.0953 362.213 51.0945 361.01 51.0937 359.77C51.092 357.325 51.0903 354.88 51.0886 352.436C51.0736 329.514 51.0795 306.593 51.0921 283.671C51.1029 262.709 51.0888 241.746 51.0626 220.783C51.036 199.251 51.0255 177.718 51.0328 156.185C51.0366 144.1 51.0341 132.014 51.015 119.928C50.9989 109.64 50.9982 99.3515 51.0172 89.0631C51.0266 83.8158 51.0289 78.5688 51.0122 73.3215C50.997 68.5135 51.0022 63.706 51.0234 58.898C51.0275 57.1632 51.0243 55.4283 51.0129 53.6936C50.9254 39.3962 52.9654 27.6696 62.9875 16.8705C63.9119 16.0132 64.8363 15.156 65.7888 14.2728C66.5779 13.5283 67.367 12.7838 68.1801 12.0168C77.4321 5.63961 87.0899 4.26447 98.0301 4.27505Z" fill="#0DB461"></path>
<path d="M98.0301 4.27505C99.6058 4.27017 99.6058 4.27017 101.213 4.2652C104.736 4.25571 108.259 4.25405 111.782 4.25242C114.306 4.24735 116.831 4.24186 119.356 4.23596C126.218 4.22161 133.08 4.21456 139.942 4.2097C144.229 4.20649 148.517 4.202 152.805 4.19712C164.686 4.18387 176.566 4.17252 188.447 4.16881C189.207 4.16857 189.967 4.16833 190.75 4.16809C191.512 4.16785 192.273 4.16761 193.058 4.16736C194.602 4.16688 196.145 4.16639 197.688 4.1659C198.454 4.16565 199.22 4.16541 200.008 4.16516C212.407 4.16085 224.805 4.14176 237.204 4.11628C249.945 4.09031 262.686 4.07699 275.427 4.07544C282.576 4.07429 289.724 4.06784 296.873 4.04829C303.6 4.03025 310.327 4.02791 317.054 4.03751C319.519 4.03835 321.984 4.03361 324.449 4.02279C327.822 4.00885 331.195 4.01531 334.568 4.0267C335.537 4.01789 336.505 4.00908 337.502 4C353.499 4.12573 365.412 11.474 376.385 22.6102C377.606 23.8228 377.606 23.8228 378.851 25.0598C381.509 27.7057 384.151 30.367 386.792 33.0295C388.65 34.8882 390.508 36.7461 392.368 38.6033C396.249 42.4855 400.123 46.3752 403.991 50.2706C408.938 55.2511 413.901 60.2144 418.871 65.1724C422.706 69.0022 426.533 72.8402 430.358 76.6806C432.185 78.5135 434.014 80.3441 435.845 82.1724C438.406 84.7316 440.956 87.3012 443.504 89.8739C444.254 90.6197 445.004 91.3655 445.777 92.1338C457.49 104.035 460.928 115.166 460.847 131.729C460.852 133.199 460.858 134.67 460.865 136.141C460.881 140.161 460.876 144.181 460.868 148.201C460.863 152.545 460.876 156.889 460.888 161.233C460.906 169.735 460.907 178.237 460.902 186.739C460.897 193.651 460.899 200.564 460.905 207.476C460.905 208.461 460.906 209.446 460.907 210.46C460.909 212.461 460.91 214.462 460.912 216.463C460.927 235.216 460.921 253.968 460.909 272.721C460.898 289.864 460.912 307.007 460.938 324.151C460.965 341.768 460.975 359.385 460.968 377.002C460.964 386.887 460.967 396.772 460.986 406.656C461.002 415.071 461.003 423.486 460.984 431.901C460.974 436.192 460.972 440.482 460.989 444.772C461.004 448.706 460.998 452.639 460.977 456.572C460.971 458.656 460.987 460.74 461.003 462.824C460.896 475.394 457.678 485.793 449.013 495.129C448.089 495.987 447.164 496.844 446.212 497.727C445.423 498.472 444.634 499.216 443.821 499.983C436.236 505.211 427.612 507.703 418.451 507.715C417.275 507.719 416.099 507.723 414.887 507.728C413.601 507.727 412.315 507.726 410.99 507.725C409.619 507.728 408.248 507.731 406.835 507.735C403.032 507.744 399.228 507.746 395.425 507.746C391.322 507.748 387.219 507.757 383.116 507.764C374.144 507.779 365.173 507.785 356.202 507.79C350.598 507.793 344.993 507.798 339.389 507.803C323.867 507.816 308.345 507.827 292.823 507.831C291.83 507.831 290.837 507.832 289.814 507.832C288.32 507.832 288.32 507.832 286.797 507.833C284.779 507.833 282.762 507.834 280.745 507.834C279.244 507.834 279.244 507.834 277.712 507.835C261.504 507.839 245.296 507.858 229.089 507.884C212.44 507.91 195.792 507.923 179.144 507.925C169.8 507.926 160.455 507.932 151.111 507.952C143.153 507.969 135.195 507.974 127.237 507.965C123.179 507.961 119.122 507.962 115.064 507.977C110.657 507.994 106.251 507.985 101.844 507.973C100.572 507.982 99.3011 507.991 97.9913 508C83.7914 507.914 73.5233 504.411 62.7825 495.129C52.5324 483.164 51.0905 471.309 51.1537 456.034C51.1492 454.239 51.1432 452.443 51.1359 450.648C51.1201 445.73 51.1247 440.812 51.1328 435.894C51.138 430.584 51.1243 425.273 51.1131 419.963C51.0943 409.566 51.0934 399.169 51.0991 388.772C51.1036 380.32 51.102 371.868 51.0961 363.417C51.0953 362.213 51.0945 361.01 51.0937 359.77C51.092 357.325 51.0903 354.88 51.0886 352.436C51.0736 329.514 51.0795 306.593 51.0921 283.671C51.1029 262.709 51.0888 241.746 51.0626 220.783C51.036 199.251 51.0255 177.718 51.0328 156.185C51.0366 144.1 51.0341 132.014 51.015 119.928C50.9989 109.64 50.9982 99.3515 51.0172 89.0631C51.0266 83.8158 51.0289 78.5688 51.0122 73.3215C50.997 68.5135 51.0022 63.706 51.0234 58.898C51.0275 57.1632 51.0243 55.4283 51.0129 53.6936C50.9254 39.3962 52.9654 27.6696 62.9875 16.8705C63.9119 16.0132 64.8363 15.156 65.7888 14.2728C66.5779 13.5283 67.367 12.7838 68.1801 12.0168C77.4321 5.63961 87.0899 4.26447 98.0301 4.27505ZM87.9742 41.7507C85.8875 44.7798 86.1478 47.1697 86.1463 50.8275C86.1415 51.5468 86.1368 52.2662 86.1319 53.0073C86.1198 55.4348 86.1313 57.8616 86.1425 60.289C86.1388 62.0401 86.1336 63.7911 86.127 65.5421C86.1133 70.3671 86.1201 75.192 86.1303 80.017C86.1377 85.2154 86.1263 90.4137 86.1172 95.612C86.1026 105.801 86.1058 115.99 86.1153 126.178C86.1227 134.456 86.1237 142.734 86.1201 151.012C86.1196 152.189 86.1191 153.365 86.1186 154.577C86.1176 156.967 86.1165 159.356 86.1154 161.746C86.1061 184.174 86.1168 206.601 86.1345 229.029C86.1491 248.289 86.1466 267.549 86.1314 286.809C86.1139 309.154 86.107 331.499 86.117 353.845C86.1181 356.226 86.1191 358.607 86.1201 360.988C86.1206 362.16 86.1212 363.331 86.1217 364.538C86.1245 372.81 86.1197 381.081 86.112 389.353C86.1028 399.428 86.1053 409.503 86.1228 419.578C86.1314 424.722 86.1347 429.866 86.1239 435.011C86.1142 439.714 86.1194 444.418 86.137 449.122C86.1406 450.829 86.1387 452.536 86.1308 454.242C86.1209 456.553 86.131 458.862 86.1463 461.173C86.1468 462.459 86.1474 463.745 86.1479 465.07C86.3286 468.156 86.3286 468.156 87.8755 470.249C90.5141 471.899 92.3153 471.888 95.4229 471.889C96.585 471.898 97.7471 471.906 98.9445 471.915C100.226 471.908 101.507 471.901 102.827 471.893C104.185 471.898 105.542 471.903 106.941 471.909C110.716 471.919 114.491 471.915 118.267 471.905C122.335 471.898 126.404 471.909 130.473 471.918C138.446 471.933 146.42 471.93 154.393 471.92C160.871 471.913 167.35 471.912 173.828 471.915C175.209 471.916 175.209 471.916 176.619 471.917C178.489 471.918 180.36 471.919 182.231 471.92C199.785 471.929 217.339 471.919 234.893 471.901C249.966 471.886 265.038 471.889 280.111 471.904C297.601 471.922 315.091 471.929 332.581 471.918C334.445 471.917 336.309 471.916 338.173 471.915C339.09 471.915 340.007 471.914 340.952 471.914C347.425 471.911 353.898 471.916 360.371 471.924C368.256 471.933 376.141 471.93 384.026 471.913C388.051 471.904 392.076 471.901 396.102 471.912C400.459 471.923 404.816 471.909 409.174 471.893C410.455 471.9 411.736 471.908 413.056 471.915C414.218 471.907 415.381 471.898 416.578 471.889C417.584 471.889 418.591 471.888 419.628 471.888C422.196 471.652 422.196 471.652 424.126 470.156C425.888 467.529 425.849 465.806 425.845 462.649C425.852 461.496 425.858 460.343 425.865 459.154C425.856 457.883 425.846 456.611 425.836 455.301C425.839 453.954 425.842 452.607 425.845 451.219C425.849 447.472 425.839 443.726 425.822 439.98C425.808 435.943 425.813 431.905 425.816 427.868C425.817 420.87 425.807 413.873 425.788 406.876C425.762 396.759 425.753 386.642 425.749 376.525C425.742 360.112 425.72 343.698 425.689 327.285C425.659 311.339 425.636 295.393 425.622 279.447C425.621 278.464 425.62 277.482 425.619 276.469C425.615 271.54 425.611 266.611 425.607 261.682C425.573 220.776 425.515 179.87 425.442 138.965C419.742 138.884 414.042 138.824 408.341 138.784C406.401 138.768 404.462 138.745 402.523 138.717C399.736 138.677 396.95 138.659 394.163 138.644C393.295 138.627 392.427 138.61 391.533 138.593C386.926 138.499 386.926 138.499 382.96 140.546C382.344 141.387 382.344 141.387 381.715 142.246C376.225 144.693 371.019 144.855 365.112 144.844C364.193 144.842 363.273 144.84 362.325 144.838C350.722 144.61 341.66 140.973 333.001 133.154C322.605 121.686 321.097 111.152 321.031 95.9608C321.013 94.3563 320.993 92.7519 320.972 91.1475C320.92 86.9561 320.887 82.7648 320.859 78.5732C320.826 74.2835 320.775 69.9939 320.726 65.7043C320.632 57.3109 320.558 48.9174 320.497 40.5237C290.48 40.4471 260.462 40.3892 230.445 40.3537C216.508 40.3367 202.571 40.3136 188.634 40.2761C176.49 40.2435 164.346 40.2223 152.202 40.2149C145.769 40.2107 139.336 40.2005 132.902 40.1767C126.852 40.1545 120.802 40.1476 114.752 40.1525C112.527 40.1516 110.302 40.1451 108.077 40.1325C105.047 40.1163 102.019 40.1201 98.9896 40.1291C97.6577 40.1147 97.6577 40.1147 96.2989 40.1001C91.9111 40.0638 91.9112 40.0638 87.9742 41.7507Z" fill="#19362B"></path>
<path d="M144.512 378.161C145.504 378.154 146.496 378.146 147.519 378.139C150.831 378.119 154.143 378.13 157.456 378.141C159.836 378.133 162.216 378.124 164.596 378.113C171.052 378.089 177.508 378.092 183.965 378.101C189.357 378.107 194.749 378.099 200.14 378.091C212.861 378.073 225.582 378.077 238.302 378.095C251.422 378.113 264.541 378.096 277.661 378.061C288.929 378.032 300.198 378.024 311.467 378.033C318.195 378.039 324.923 378.036 331.651 378.014C337.978 377.994 344.305 378.001 350.632 378.027C352.952 378.033 355.272 378.029 357.592 378.015C360.763 377.998 363.933 378.014 367.104 378.039C368.018 378.026 368.933 378.013 369.875 378C376.449 378.103 381.026 379.92 386.079 384.114C389.041 387.561 390.339 390.879 391.003 395.38C390.21 400.954 388.672 405.634 384.257 409.425C378.447 413.19 373.989 414.033 367.111 413.943C366.118 413.951 365.125 413.96 364.102 413.968C360.792 413.99 357.484 413.973 354.174 413.956C351.794 413.963 349.414 413.973 347.034 413.984C340.582 414.009 334.131 413.999 327.679 413.982C320.922 413.969 314.165 413.981 307.408 413.99C296.062 414 284.716 413.987 273.37 413.961C260.258 413.932 247.147 413.941 234.035 413.971C222.771 413.995 211.507 413.999 200.243 413.985C193.519 413.976 186.794 413.975 180.07 413.993C173.747 414.009 167.425 413.998 161.103 413.967C158.785 413.959 156.466 413.961 154.148 413.973C150.979 413.988 147.812 413.97 144.643 413.943C143.273 413.961 143.273 413.961 141.875 413.979C135.351 413.872 130.638 412.121 125.675 407.86C121.97 402.77 120.27 397.982 121.299 391.669C125.848 381.125 133.494 378.054 144.512 378.161Z" fill="#FEFEFE"></path>
<path d="M142.957 285.276C143.952 285.273 144.947 285.27 145.972 285.266C149.326 285.257 152.679 285.255 156.033 285.253C158.43 285.248 160.826 285.243 163.222 285.237C169.748 285.222 176.273 285.215 182.799 285.21C186.873 285.207 190.947 285.203 195.021 285.198C208.493 285.182 221.965 285.172 235.437 285.167C236.164 285.167 236.891 285.167 237.639 285.167C238.367 285.166 239.095 285.166 239.844 285.166C251.631 285.161 263.417 285.142 275.204 285.117C287.303 285.091 299.402 285.077 311.501 285.076C318.295 285.075 325.089 285.068 331.883 285.048C338.274 285.03 344.665 285.028 351.056 285.038C353.403 285.038 355.75 285.034 358.097 285.023C361.299 285.009 364.5 285.015 367.703 285.027C368.633 285.018 369.562 285.009 370.52 285C376.685 285.052 381.398 286.048 386.127 290.371C390.361 295.822 391.365 299.394 390.898 306.291C388.953 311.421 386.327 314.85 382.134 318.369C376.598 320.763 371.622 320.878 365.708 320.851C364.727 320.855 363.746 320.859 362.736 320.864C359.456 320.875 356.177 320.871 352.897 320.866C350.543 320.871 348.189 320.877 345.835 320.883C339.446 320.898 333.057 320.898 326.667 320.896C321.334 320.895 316.001 320.9 310.668 320.905C298.088 320.917 285.508 320.918 272.928 320.911C259.946 320.905 246.964 320.918 233.982 320.941C222.838 320.961 211.693 320.967 200.549 320.964C193.892 320.962 187.235 320.965 180.579 320.98C174.32 320.994 168.063 320.992 161.804 320.977C159.507 320.975 157.21 320.978 154.913 320.987C151.778 320.998 148.644 320.989 145.509 320.975C144.599 320.984 143.689 320.992 142.752 321C135.834 320.935 131.4 319.277 126.069 314.663C122.617 310.626 121.586 307.849 121.003 302.586C121.65 296.314 124.042 292.51 128.671 288.312C133.443 285.04 137.321 285.27 142.957 285.276Z" fill="#FCFEFD"></path>
<path d="M145.66 191.275C146.634 191.272 147.609 191.269 148.612 191.265C151.89 191.256 155.168 191.254 158.446 191.252C160.791 191.247 163.136 191.242 165.481 191.236C171.861 191.222 178.241 191.215 184.621 191.21C188.606 191.206 192.591 191.202 196.576 191.197C209.039 191.182 221.502 191.172 233.965 191.167C248.359 191.162 262.753 191.143 277.148 191.112C288.269 191.088 299.39 191.077 310.511 191.075C317.155 191.074 323.799 191.068 330.444 191.048C336.695 191.03 342.945 191.028 349.196 191.038C351.49 191.038 353.784 191.034 356.077 191.023C359.21 191.009 362.342 191.015 365.475 191.027C366.382 191.018 367.288 191.009 368.222 191C374.793 191.056 379.907 192.251 385.243 196.359C388.921 200.571 390.733 204.075 391.003 209.724C390.403 215.552 387.747 219.657 383.579 223.627C378.538 226.863 373.828 226.592 368.042 226.591C367.049 226.595 366.056 226.599 365.033 226.603C361.692 226.615 358.351 226.62 355.01 226.624C352.621 226.631 350.231 226.638 347.841 226.646C341.339 226.665 334.837 226.676 328.335 226.685C324.275 226.691 320.215 226.697 316.155 226.704C303.458 226.725 290.761 226.741 278.064 226.75C276.603 226.751 275.141 226.752 273.68 226.753C272.593 226.754 272.593 226.754 271.483 226.755C259.738 226.764 247.992 226.791 236.247 226.827C224.187 226.863 212.127 226.882 200.068 226.886C193.297 226.889 186.526 226.899 179.755 226.926C173.387 226.952 167.019 226.956 160.651 226.945C158.312 226.944 155.974 226.951 153.636 226.966C150.445 226.986 147.256 226.978 144.065 226.964C143.138 226.976 142.212 226.988 141.257 227C135.423 226.936 132.135 225.915 127.497 222.055C123.154 217.001 121.764 212.213 122.036 205.648C123.901 199.695 127.952 196.021 132.959 192.522C137.207 191.105 141.233 191.27 145.66 191.275Z" fill="#FCFEFD"></path>
<path d="M146.814 98.0503C148.035 98.0444 149.256 98.0386 150.514 98.0325C154.537 98.019 158.559 98.0369 162.582 98.0564C165.384 98.0562 168.186 98.0546 170.988 98.0516C176.854 98.0501 182.72 98.0633 188.587 98.0885C195.358 98.1173 202.129 98.1192 208.9 98.1065C215.429 98.0948 221.959 98.1016 228.489 98.1168C231.261 98.1217 234.033 98.1221 236.805 98.1179C240.678 98.1147 244.551 98.1326 248.424 98.1563C249.568 98.1514 250.712 98.1465 251.891 98.1415C258.648 98.21 263.848 98.7419 269.018 103.515C273.614 109.458 274.478 112.901 273.797 120.294C271.794 126.015 268.742 128.753 263.923 132.228C260.775 133.266 258.775 133.458 255.505 133.48C254.451 133.489 253.398 133.499 252.313 133.508C251.159 133.513 250.004 133.517 248.815 133.522C247.598 133.531 246.381 133.54 245.128 133.549C241.092 133.576 237.056 133.594 233.02 133.61C231.642 133.615 230.264 133.621 228.844 133.627C223.051 133.65 217.258 133.671 211.465 133.683C203.178 133.701 194.891 133.737 186.603 133.799C180.064 133.846 173.525 133.863 166.986 133.87C164.21 133.877 161.434 133.894 158.657 133.92C154.768 133.954 150.88 133.954 146.99 133.946C145.847 133.964 144.704 133.982 143.527 134C136.343 133.939 131.107 132.773 125.688 127.888C121.983 122.756 120.266 117.972 121.299 111.614C123.711 106.011 126.598 102.52 132.065 99.5248C136.819 97.6821 141.773 98.004 146.814 98.0503Z" fill="#FDFEFE"></path>
<path d="M355.384 55C359.829 56.7606 362.812 59.8769 366.116 63.1858C366.736 63.798 367.356 64.4102 367.995 65.041C370.039 67.0623 372.076 69.0913 374.112 71.1207C375.532 72.5288 376.952 73.9364 378.373 75.3436C381.347 78.2923 384.318 81.2446 387.286 84.1997C391.092 87.9886 394.905 91.7703 398.72 95.5496C401.653 98.4551 404.582 101.363 407.511 104.273C408.916 105.668 410.322 107.063 411.728 108.457C413.692 110.405 415.652 112.357 417.611 114.309C418.193 114.886 418.776 115.462 419.376 116.056C427.557 124.233 425.856 124.645 425.856 139C412.775 139 399.693 139 386.215 139C387.306 136.48 388.396 133.96 389.519 131.364C390.399 125.371 388.939 121.94 385.863 116.96C382.166 113.042 378.08 111.594 372.783 111.284C370.291 111.21 367.801 111.181 365.309 111.152C359.156 110.969 359.156 110.969 356.797 109.296C354.955 106.777 354.984 105.281 355.009 102.185C355.009 101.137 355.009 100.089 355.01 99.0092C355.027 97.8807 355.044 96.7522 355.061 95.5895C355.066 94.4319 355.071 93.2742 355.075 92.0815C355.094 88.3798 355.135 84.6788 355.177 80.9773C355.194 78.4695 355.209 75.9617 355.222 73.4538C355.259 67.3023 355.314 61.1512 355.384 55Z" fill="#1B5D3E"></path>
</svg><style>@media (prefers-color-scheme: light) { :root { filter: none; } }
@media (prefers-color-scheme: dark) { :root { filter: none; } }
</style></svg>